<svg width="72" height="20" viewBox="0 0 72 20" fill="none" xmlns="http://www.w3.org/2000/svg">
<path d="M10.04 4.24H5.02C4.43333 4.24 4.02 4.35333 3.78 4.58C3.55333 4.80667 3.44 5.2 3.44 5.76V7.74H8.66L8.46 10.22H3.44V16H0.66V4.66C0.66 3.60667 0.886667 2.86 1.34 2.42C1.80667 1.98 2.6 1.76 3.72 1.76H10.04V4.24ZM14.7569 16L12.1569 16.02V0.959999H14.7569V16ZM18.8698 0.219999C19.4965 0.219999 19.9032 0.319999 20.0898 0.519999C20.2765 0.706666 20.3698 1.11333 20.3698 1.74C20.3698 2.35333 20.2698 2.76 20.0698 2.96C19.8832 3.14667 19.4765 3.24 18.8498 3.24C18.2365 3.24 17.8298 3.14 17.6298 2.94C17.4432 2.74 17.3498 2.33333 17.3498 1.72C17.3498 1.10667 17.4432 0.706666 17.6298 0.519999C17.8298 0.319999 18.2432 0.219999 18.8698 0.219999ZM20.1498 16H17.5498V5H20.1498V16ZM28.8977 11.82L31.2577 11.8C31.2443 11.9067 31.231 12.1 31.2177 12.38C31.2043 12.66 31.191 12.8533 31.1777 12.96C31.1777 13.0533 31.1643 13.2067 31.1377 13.42C31.111 13.6333 31.0777 13.7933 31.0377 13.9C31.011 13.9933 30.971 14.12 30.9177 14.28C30.6777 14.9733 30.0243 15.52 28.9577 15.92C28.2777 16.16 27.5643 16.28 26.8177 16.28C26.0843 16.28 25.4177 16.16 24.8177 15.92C24.2177 15.68 23.7443 15.3733 23.3977 15C22.611 14.1733 22.2177 12.6267 22.2177 10.36C22.2177 8.08 22.611 6.52667 23.3977 5.7C23.7443 5.32667 24.2177 5.02 24.8177 4.78C25.4177 4.54 26.0843 4.42 26.8177 4.42C28.2577 4.42 29.351 4.78 30.0977 5.5C30.8443 6.22 31.2177 7.22 31.2177 8.5H28.8577C28.8577 7.91333 28.711 7.48 28.4177 7.2C28.1243 6.90667 27.5777 6.76 26.7777 6.76C25.991 6.76 25.4643 7.00667 25.1977 7.5C24.9443 7.99333 24.8177 8.73333 24.8177 9.72V10.76C24.8177 12.3467 25.1243 13.32 25.7377 13.68C26.0177 13.8533 26.3843 13.94 26.8377 13.94C27.291 13.94 27.6577 13.9 27.9377 13.82C28.231 13.7267 28.4377 13.5733 28.5577 13.36C28.691 13.1467 28.7777 12.94 28.8177 12.74C28.8577 12.5267 28.8843 12.22 28.8977 11.82ZM43.2488 16H40.1288L37.1288 11.96L35.9888 13.58V16H33.3888V0.959999H35.9888V10.46L39.6288 5.04H42.5688L38.8288 10.16L43.2488 16ZM53.1606 10.9H46.5006C46.5006 11.94 46.6606 12.7 46.9806 13.18C47.314 13.66 47.974 13.9 48.9606 13.9C49.6006 13.9 50.074 13.7 50.3806 13.3C50.6873 12.8867 50.8406 12.4933 50.8406 12.12H53.1806C53.1806 13.5467 52.794 14.5933 52.0206 15.26C51.2606 15.9267 50.2473 16.26 48.9806 16.26C47.7273 16.26 46.754 16.08 46.0606 15.72C44.634 14.9867 43.9206 13.04 43.9206 9.88C43.9206 8 44.3273 6.62667 45.1406 5.76C45.954 4.88 47.194 4.44 48.8606 4.44C51.754 4.44 53.2006 6.04667 53.2006 9.26C53.2006 9.60667 53.1873 10.1533 53.1606 10.9ZM46.5606 9.12H50.8406C50.8406 8.24 50.674 7.6 50.3406 7.2C50.0073 6.8 49.494 6.6 48.8006 6.6C48.1206 6.6 47.574 6.80667 47.1606 7.22C46.7606 7.62 46.5606 8.25333 46.5606 9.12ZM61.6177 4.62L60.8977 7.18C60.6977 7.1 60.471 7.06 60.2177 7.06C59.551 7.06 58.731 7.34667 57.7577 7.92V16H55.1577V4.58H57.0977L57.6977 5.58L60.4577 4.44C60.591 4.42667 60.771 4.42 60.9977 4.42C61.2243 4.42 61.431 4.48667 61.6177 4.62ZM71.6906 4.58L67.3506 17.28C67.1506 17.8533 66.8906 18.3 66.5706 18.62C66.0373 19.1533 65.2906 19.42 64.3306 19.42H63.1106V17.08H63.9106C64.284 17.08 64.5573 17.0133 64.7306 16.88C64.9173 16.76 65.0773 16.5133 65.2106 16.14L65.4106 15.58L61.9706 4.58H64.7106L66.7506 12.52L68.9506 4.58H71.6906Z" fill="white"/>
</svg>
